# xmcd
#
# Track frame offsets:
#	182
#	15777
#	29677
#	44032
#	57152
#	70092
#	82007
#	99057
#	116185
#	131365
#	146310
#	161037
#	176540
#	194045
#
# Disc length: 2737
#
# Revision: 2
# Processed by: cddbd v1.5.1PL0 Copyright (c) Steve Scherf et al.
# Submitted via: OrangeCD 4.1
# Normalized: r0:DSETVAR1,TSWAP
#
DISCID=bd0aaf0e
DTITLE=Various Artist - Classic Country - Volume 2
DYEAR=1900
DGENRE=
TTITLE0=Dolly Parton - Old Flames (Can't Hold A Candle To You)
TTITLE1=Charley Pride - You Win Again
TTITLE2=Bobby Bare - Cowboys and Daddies
TTITLE3=Skeeter Davis - Put It Off Until Tomorrow
TTITLE4=Leon Everette - Giving Up Easy
TTITLE5=Dottie West - It Was Love While It Lasted
TTITLE6=Tom T. Hall - Mr. Bojangles
TTITLE7=Dolly Parton - Cowgirl and The Dandy
TTITLE8=Jerry Reed - Lord, Mr. Ford
TTITLE9=Ronnie Milsap - Back On My Mind Again
TTITLE10=Willie Nelson - Sweet Memories
TTITLE11=Ray Stevens - Night Games
TTITLE12=Alabama - Hollywood
TTITLE13=Don Gibson - Singing The Blues
EXTD=
EXTT0=
EXTT1=
EXTT2=
EXTT3=
EXTT4=
EXTT5=
EXTT6=
EXTT7=
EXTT8=
EXTT9=
EXTT10=
EXTT11=
EXTT12=
EXTT13=
PLAYORDER=
